<svg xmlns="http://www.w3.org/2000/svg" width="700" height="440" viewBox="0 0 700 440" role="img" aria-label="Triple Sharing">
  <defs><linearGradient id="g" x1="0" y1="0" x2="0" y2="1"><stop offset="0" stop-color="#7cc1ec"/><stop offset="1" stop-color="#2f8fd0"/></linearGradient></defs>
  <rect width="700" height="440" fill="url(#g)"/>
  <g fill="#ffffff" opacity="0.92" transform="translate(324.0,132.0) scale(2.2)"><path d="M8 11a3 3 0 1 0 0-6 3 3 0 0 0 0 6zm8 0a3 3 0 1 0 0-6 3 3 0 0 0 0 6zM2 19c0-3 3-5 6-5s6 2 6 5zm12 0c0-2-1-3.5-2.5-4.5C13 14 14.5 14 16 14c3 0 6 2 6 5z"/></g>
  <text x="50%" y="308" text-anchor="middle" font-family="Lato,Arial,sans-serif" font-weight="700" font-size="48" fill="#ffffff">Triple Sharing</text>
  <text x="50%" y="340" text-anchor="middle" font-family="Lato,Arial,sans-serif" font-size="24" fill="#dcecf9">Budget-friendly</text>
</svg>